# xmcd CD database file
# Copyright (C) 1993-1996 Ti Kan
#
# Track frame offsets:
#  150
#  17370
#  30448
#  44484
#  67409
#  83957
#  103947
#  119993
#  163721
#  182663
#  201527
#  213465
#  236157
#  256774
#  276206
#  304047
#
# Disc length: 4260 seconds
#
# Revision: 2
# Processed by: cddbd v1.5.1PL0 Copyright (c) Steve Scherf et al.
# Submitted via: Advanced CD Ripper Pro 2.0
#
DISCID=f110a210
DTITLE=Ryan Adams - Gold
DYEAR=2001
DGENRE=AltCountry
TTITLE0=New York, New York
TTITLE1=Firecracker
TTITLE2=Answering Bell
TTITLE3=La Cienega just Smiled
TTITLE4=The Rescue Blues
TTITLE5=Somehow, Someday
TTITLE6=When the Stars go Blue
TTITLE7=Nobody Girl
TTITLE8=SYLVIA PLATH
TTITLE9=Enemy Fire
TTITLE10=Gonna Make You Love Me
TTITLE11=Wild Flowers
TTITLE12=Harder Now That It's Over
TTITLE13=Touch, Feel and Lose
TTITLE14=Tina Toledo's Street Walkin' Blues
TTITLE15=Goodnight Hollywood Blvd
EXTD=
EXTT0=
EXTT1=
EXTT2=
EXTT3=
EXTT4=
EXTT5=
EXTT6=
EXTT7=
EXTT8=
EXTT9=
EXTT10=
EXTT11=
EXTT12=
EXTT13=
EXTT14=
EXTT15=
PLAYORDER=
